<?xml version="1.0" encoding="UTF-8" standalone="no"?>
<!-- Created with Inkscape (http://www.inkscape.org/) -->

<svg
   xmlns:dc="http://purl.org/dc/elements/1.1/"
   xmlns:cc="http://creativecommons.org/ns#"
   xmlns:rdf="http://www.w3.org/1999/02/22-rdf-syntax-ns#"
   xmlns:svg="http://www.w3.org/2000/svg"
   xmlns="http://www.w3.org/2000/svg"
   xmlns:sodipodi="http://sodipodi.sourceforge.net/DTD/sodipodi-0.dtd"
   xmlns:inkscape="http://www.inkscape.org/namespaces/inkscape"
   width="10.676093mm"
   height="5.6318989mm"
   viewBox="0 0 10.676093 5.6318989"
   version="1.1"
   id="svg3925"
   inkscape:version="0.92.4 (5da689c313, 2019-01-14)"
   sodipodi:docname="thicker-initials.svg">
  <defs
     id="defs3919" />
  <sodipodi:namedview
     id="base"
     pagecolor="#ffffff"
     bordercolor="#666666"
     borderopacity="1.0"
     inkscape:pageopacity="0.0"
     inkscape:pageshadow="2"
     inkscape:zoom="11.2"
     inkscape:cx="5.1423869"
     inkscape:cy="13.15924"
     inkscape:document-units="mm"
     inkscape:current-layer="layer1"
     showgrid="false"
     inkscape:window-width="1920"
     inkscape:window-height="1017"
     inkscape:window-x="-8"
     inkscape:window-y="-8"
     inkscape:window-maximized="1" />
  <metadata
     id="metadata3922">
    <rdf:RDF>
      <cc:Work
         rdf:about="">
        <dc:format>image/svg+xml</dc:format>
        <dc:type
           rdf:resource="http://purl.org/dc/dcmitype/StillImage" />
        <dc:title></dc:title>
      </cc:Work>
    </rdf:RDF>
  </metadata>
  <g
     inkscape:label="Layer 1"
     inkscape:groupmode="layer"
     id="layer1"
     transform="translate(-70.781184,-122.8077)">
    <path
       style="fill:#1a1a1a;stroke-width:0.26458332"
       id="path3965"
       d="m 70.781184,128.43944 c 0.02604,-0.0379 0.04814,-0.0789 0.07812,-0.1138 0.04296,-0.05 0.09857,-0.0885 0.139819,-0.13996 0.21263,-0.26523 -0.05048,0.004 0.138803,-0.26473 0.178258,-0.19517 0.103658,-0.0977 0.230277,-0.28742 0.2794,-0.44998 -0.23604,0.35688 0.229513,-0.25797 0.02265,-0.0299 0.01109,-0.0767 0.03197,-0.10786 0.0321,-0.0479 0.08418,-0.079 0.122317,-0.12222 0.05219,-0.0592 0.103378,-0.14261 0.146561,-0.20896 0.01659,-0.0305 0.02897,-0.0637 0.04976,-0.0916 0.04735,-0.0634 0.129014,-0.12678 0.180756,-0.18637 0.07103,-0.0818 0.140903,-0.1677 0.204956,-0.25559 0.425744,-0.45388 -0.105357,0.14314 0.148323,-0.22102 0.03261,-0.0468 0.08791,-0.075 0.119473,-0.12257 0.01916,-0.0288 0.01288,-0.0689 0.02825,-0.0999 0.04375,-0.0883 0.115409,-0.15009 0.182544,-0.21936 0.05688,-0.13063 0.177244,-0.22124 0.24588,-0.34423 0.01082,-0.0194 0.01312,-0.0424 0.01966,-0.0637 0.01587,-0.0231 0.03173,-0.0462 0.0476,-0.0693 0.03545,-0.0767 0.0952,-0.13726 0.140886,-0.20642 0.07778,-0.11775 -0.01069,-0.0119 0.05309,-0.13626 0.015,-0.0292 0.03765,-0.0539 0.05647,-0.0808 0.02066,-0.0299 0.04131,-0.0598 0.06197,-0.0896 -0.0028,-0.0235 -0.01892,-0.0493 -0.0084,-0.0704 0.02225,-0.0447 0.07402,-0.069 0.09931,-0.11205 0.0173,-0.0294 0.01249,-0.0676 0.02495,-0.0994 0.01037,-0.0265 0.09869,-0.18488 0.112906,-0.21068 0.07695,-0.16809 0.257561,-0.33348 0.291303,-0.51926 0.349727,-0.49232 -0.936045,-0.0451 1.434677,-0.4051 0.03321,-0.005 -0.0034,0.0673 -1.3e-4,0.10076 0.0021,0.0217 0.03444,0.16233 0.0393,0.18395 0.0056,0.18371 -0.08266,0.34304 -0.05008,0.52475 -0.02567,0.0516 -0.09059,0.16448 -0.08949,0.22878 5.29e-4,0.0317 0.03768,0.0567 0.03549,0.0884 -0.0028,0.0406 -0.03736,0.0727 -0.04935,0.11157 -0.01878,0.0609 -0.01667,0.13126 -0.01842,0.19389 -0.06127,0.0591 -0.0024,0.13185 -0.01915,0.19491 -0.0105,0.0393 -0.04367,0.0692 -0.05848,0.10705 -0.08298,0.21217 0.02096,0.02 -0.0456,0.23498 -0.0145,0.0468 -0.04092,0.0891 -0.06138,0.1336 -0.0048,0.0394 -0.01558,0.0786 -0.0145,0.1183 7.94e-4,0.0339 0.02466,0.0661 0.02035,0.0997 -0.005,0.0389 -0.0332,0.0712 -0.047,0.10796 -0.03394,0.0904 -0.05825,0.17256 -0.05585,0.26854 -0.02053,0.0293 -0.01601,0.21875 0.01283,0.22003 0.0047,2.1e-4 -0.0035,-0.01 -0.0016,-0.0141 0.01281,-0.0268 0.02994,-0.0513 0.04492,-0.0769 -1.844908,0.73256 -1.412285,0.68762 -0.959943,0.11675 0.09786,-0.13242 0.246817,-0.23925 0.318077,-0.39123 0.01148,-0.0245 0.0026,-0.0579 0.01995,-0.0786 0.03695,-0.0438 0.09036,-0.0704 0.135535,-0.10557 0.02138,-0.069 0.117026,-0.0922 0.141462,-0.15869 0.0059,-0.0161 -0.02929,-0.028 -0.02556,-0.0448 0.0079,-0.0357 0.132273,-0.17425 0.15898,-0.20836 0.06513,-0.0309 0.05364,-0.10917 0.0919,-0.15576 0.03563,-0.0434 0.08762,-0.0713 0.123576,-0.11447 0.02593,-0.0311 0.03819,-0.0715 0.05991,-0.10561 0.04679,-0.0736 0.100225,-0.14266 0.150093,-0.21416 0.07746,-0.0868 0.112435,-0.20306 0.173361,-0.29836 0.06149,-0.0962 0.118115,-0.14701 0.15341,-0.25708 0.0762,-0.0792 0.101809,-0.19489 0.165111,-0.28129 0.02984,-0.0407 0.07408,-0.0699 0.102179,-0.11184 0.01511,-0.0225 0.01646,-0.0517 0.02466,-0.0776 0.01675,-0.0212 0.03348,-0.0425 0.05022,-0.0638 0.335204,-0.38902 0.115922,-0.14917 1.410425,-0.3413 0.02976,-0.004 -0.07035,0.10712 -0.058,0.19945 0.02328,0.17394 0.09009,-0.0367 -0.0071,0.17221 -0.241893,0.35647 0.0668,-0.13499 -0.06408,0.18163 -0.01916,0.0464 -0.06815,0.0765 -0.08649,0.1232 -0.01207,0.0307 0.0088,0.0674 -7.94e-4,0.099 -0.01312,0.0432 -0.139171,0.25272 -0.157353,0.28376 -0.03491,0.29272 0.02734,-0.0606 -0.117692,0.27248 -0.01466,0.0336 -4e-5,0.0741 -0.0089,0.10972 -0.0094,0.0375 -0.03607,0.0692 -0.04514,0.10677 -0.04312,0.17868 0.08889,-0.009 -0.104132,0.19395 -0.0172,0.0274 -0.0344,0.0548 -0.0516,0.0823 0.0093,0.0185 0.03518,0.0362 0.02788,0.0557 -0.01384,0.0368 -0.0605,0.0522 -0.08101,0.0857 -0.06764,0.11062 0.09388,0.0165 -0.0895,0.19656 -0.05606,0.20097 -0.156507,0.39056 -0.230352,0.58786 -0.06478,0.0641 -0.0047,0.14457 -0.024,0.21353 -0.01291,0.046 -0.05705,0.0796 -0.06816,0.12609 -0.0075,0.0313 0.02064,0.0637 0.01516,0.0955 -0.0074,0.043 -0.03746,0.079 -0.05232,0.12006 -0.01386,0.0383 -0.02244,0.0783 -0.03366,0.11739 0.08658,0.20452 0.01619,-0.0259 -0.01429,0.21776 -0.0036,0.0288 0.02718,0.0531 0.02879,0.0821 0.0072,0.12972 -0.07022,0.12155 0.04668,0.23099 0.02225,0.19745 0.170529,0.14838 0.318958,0.22609 0.172286,0.0209 0.338802,-0.0207 0.50768,-0.0435 0.455938,-0.22033 0.08007,-0.0359 -1.154949,0.41069 -0.02529,0.009 0.05049,-0.0187 0.07558,-0.0284 0.06684,-0.0259 0.122701,-0.0608 0.190222,-0.0885 0.142275,-0.0917 0.348187,-0.11651 0.463127,-0.24838 0.07303,-0.0519 0.163343,-0.0683 0.240355,-0.11148 0.01648,-0.009 0.02653,-0.0269 0.03979,-0.0404 0.01728,-0.0135 0.03232,-0.0304 0.05183,-0.0404 0.142552,-0.0728 0.106461,-0.004 0.136954,-0.0791 0.115411,-0.0295 0.190219,-0.11398 0.283945,-0.17844 0.128191,-0.0882 0.257054,-0.16457 0.378863,-0.2622 0.02405,-0.0238 0.04574,-0.0503 0.07217,-0.0714 0.320193,-0.25624 -0.08998,0.10287 0.246869,-0.17411 0.100947,-0.083 0.19572,-0.17348 0.298445,-0.25542 0.03504,-0.0308 0.161758,-0.14006 0.193402,-0.17665 0.01921,-0.0222 0.02635,-0.0538 0.04751,-0.0743 0.09321,-0.09 0.20664,-0.14427 0.295781,-0.24107 0.05277,-0.11878 0.17473,-0.15909 0.262284,-0.24251 0.0204,-0.0194 0.02241,-0.0529 0.04155,-0.0736 0.135374,-0.14629 0.08243,-0.0168 0.122066,-0.14287 0.02241,-0.0216 0.04219,-0.0463 0.06726,-0.0647 0.04298,-0.0316 0.09558,-0.0495 0.13585,-0.0845 0.0041,-0.004 0.06666,-0.12448 0.06961,-0.12851 0.03684,-0.0502 0.101396,-0.10643 0.146208,-0.14829 0.07357,-0.14419 0.180536,-0.27112 0.252857,-0.41582 0.03332,-0.0667 0.05511,-0.13869 0.08823,-0.20546 0.05445,-0.14718 0.104785,-0.35072 0.06736,-0.50513 0.0086,-0.10534 -0.07782,-0.0869 -0.121857,-0.15089 -0.04907,-0.0713 0.09361,-0.10306 -0.153897,-0.0884 -0.137009,-0.0651 -0.302982,-0.0445 -0.455094,-0.0522 -0.0313,2.3e-4 -0.06271,-0.002 -0.09389,7.9e-4 -0.08974,0.008 -0.184132,0.0322 -0.269238,0.0613 -0.04037,0.0138 -0.16002,0.0592 -0.119896,0.0447 0.411589,-0.14838 0.822857,-0.29763 1.234287,-0.44645 -0.242083,0.0878 -0.426963,0.26436 -0.641607,0.39631 -0.116059,0.12125 -0.270645,0.19786 -0.395848,0.30722 -0.01857,0.0162 -0.02968,0.0395 -0.04451,0.0592 -0.03095,0.0242 -0.0619,0.0485 -0.09286,0.0727 -0.195829,0.1314 -0.337976,0.32179 -0.498465,0.48975 -0.08201,0.0435 -0.09525,0.13133 -0.141742,0.1978 -0.07017,0.10033 -0.07786,0.067 -0.09978,0.19465 -0.01283,0.0194 -0.07686,0.11131 -0.08241,0.13778 -0.0041,0.0195 0.01212,0.0394 0.0096,0.0592 -0.0059,0.0462 -0.07743,0.0826 -0.06044,0.12597 0.0092,0.0234 0.04735,0.0172 0.07103,0.0258 0.06394,0.007 0.07482,0.0873 0.132141,0.10605 0.03485,0.0114 0.07447,-2.4e-4 0.109503,0.0106 0.01738,0.005 0.02734,0.024 0.04102,0.0361 0.02835,0.004 0.05669,0.008 0.08504,0.0122 0.224157,0.0524 -0.140827,-0.0257 0.186465,0.009 0.01765,0.002 0.02982,0.0207 0.04705,0.0249 0.10211,0.0253 0.222258,-0.0106 0.324617,-0.0207 0.06087,0.052 0.291388,-0.0474 0.353708,-0.0641 0.02252,-0.006 0.04641,-0.004 0.06961,-0.007 0.04043,-0.0131 0.08086,-0.0262 0.121298,-0.0392 -2.309394,0.75039 -1.142709,0.50347 -0.713494,0.18017 0.03882,-0.0216 0.1602,-0.0855 0.199708,-0.11939 0.03034,-0.0261 0.04655,-0.0654 0.07412,-0.0944 0.03957,-0.0416 0.0601,-0.0355 0.01177,-0.0354 -0.03707,0.0173 -0.07731,-0.0211 -0.106587,-0.0223 -0.03863,-0.002 -0.07646,0.0139 -0.115118,0.0141 -0.236564,0.002 0.136711,-0.0404 -0.145423,-0.002 -1.116459,0.29473 1.726499,-0.64307 0.729094,-0.28606 -0.211643,0.0988 -0.398645,0.23803 -0.573238,0.39206 -0.145074,0.13774 -0.297696,0.26702 -0.441584,0.4068 -0.0088,0.0183 -0.01371,0.0391 -0.0265,0.0548 -0.02215,0.0273 -0.05367,0.0458 -0.07669,0.0723 -0.0608,0.0701 -0.01278,0.0439 -0.0673,0.11636 -0.07289,0.0749 -0.04088,0.0365 -0.09744,0.11376 -0.01783,0.025 -0.03565,0.05 -0.05348,0.075 0.0039,0.0225 0.02024,0.0462 0.01177,0.0674 -0.05691,0.14203 -0.09839,0.0511 -0.12405,0.1983 -0.0049,0.0281 0.01204,0.056 0.01318,0.0844 0.0011,0.0297 -0.0042,0.0593 -0.0062,0.0889 0.0042,0.10207 -0.01609,0.17819 0.06098,0.25718 0.02096,0.0215 0.05061,0.0335 0.07058,0.0559 0.109594,0.12299 -0.03811,0.0331 0.129424,0.1131 0.02085,0.0139 0.135692,0.0926 0.160994,0.10067 0.04086,0.0131 0.08739,0.003 0.127267,0.0192 0.02077,0.008 0.02495,0.0402 0.04534,0.0493 0.0663,0.0297 0.142309,0.0295 0.212826,0.047 0.190002,0.0527 0.381336,0.076 0.578445,0.0644 0.181353,0.0147 0.36195,0.007 0.542904,0.0234 0.209746,-0.0153 0.420023,-0.0394 0.62248,-0.0937 0.08971,-0.0308 0.05324,-0.0323 0.106741,-0.0244 0,0 -1.226717,0.66977 -1.226717,0.66977 v 0 c -0.104196,0.0267 -0.05314,0.0182 -0.152858,0.0273 -0.187859,0.0378 -0.381341,0.0418 -0.572524,0.0451 -0.03665,0.003 -0.0733,0.005 -0.109945,0.008 -0.0235,-0.004 -0.04657,-0.0139 -0.07046,-0.0132 -0.04598,10e-4 -0.09068,0.0174 -0.136641,0.0195 -0.08996,0.004 -0.17375,-0.0524 -0.265224,-0.026 -0.210024,0.0116 -0.419007,-0.0208 -0.616413,-0.0919 -0.03529,-0.007 -0.07215,-0.009 -0.105868,-0.0212 -0.02363,-0.009 -0.04085,-0.0299 -0.06308,-0.0418 -0.06376,-0.0342 -0.139065,-0.0448 -0.200658,-0.0828 -0.02688,-0.0166 -0.04471,-0.0446 -0.06707,-0.0669 -0.03294,-0.0186 -0.06589,-0.0372 -0.09884,-0.0558 -0.02912,-0.0209 -0.226229,-0.19629 -0.238601,-0.2192 -0.01844,-0.0341 -0.0033,-0.0782 -0.01389,-0.11553 -0.02061,-0.0729 -0.07926,-0.13222 -0.08074,-0.21234 0.0074,-0.0385 0.01233,-0.0776 0.02207,-0.11558 0.0094,-0.0367 0.03352,-0.0702 0.03522,-0.10798 0.0013,-0.0302 -0.02798,-0.0566 -0.02646,-0.0868 0.0052,-0.10397 0.103066,-0.1824 0.130173,-0.27888 0.0042,-0.021 1.72e-4,-0.0455 0.01257,-0.0629 0.02103,-0.0296 0.05681,-0.0454 0.08264,-0.0709 0.06629,-0.0654 0.127939,-0.14461 0.131339,-0.24048 0.08374,-0.0637 0.176527,-0.12822 0.248547,-0.20595 0.02008,-0.0217 0.03194,-0.0506 0.054,-0.0703 0.199565,-0.17756 0.04409,0.0149 0.171138,-0.15662 0.193638,-0.13573 0.355817,-0.30685 0.560004,-0.42576 0.175003,-0.0849 0.04841,-0.0287 0.25464,-0.10397 0.302956,-0.11053 1.128009,-0.52026 1.667849,-0.54965 0.122973,0.0602 -0.03894,-0.008 0.179194,0.0172 0.02143,0.002 0.03699,0.0229 0.05737,0.0299 0.09409,0.0325 0.14909,0.03 0.175509,0.14169 0.02244,0.0213 0.06377,0.0331 0.06733,0.0639 0.0039,0.0338 -0.0372,0.0575 -0.04964,0.0892 -0.09975,0.25387 0.142999,-0.19668 -0.103219,0.15112 -0.0097,0.0137 0.008,0.0374 -0.0029,0.0502 -0.02331,0.0275 -0.06015,0.0397 -0.09023,0.0596 -0.0928,0.0823 -0.196662,0.1192 -0.305125,0.17682 -0.533024,0.28311 -0.793062,0.47716 -1.614212,0.61738 -0.0857,0.0232 -0.169082,0.0561 -0.256429,0.0721 -0.02106,0.004 -0.0429,-0.005 -0.0642,-0.003 -0.105778,0.0112 -0.210733,0.0415 -0.318212,0.0423 -0.09626,-0.0109 -0.191614,-0.003 -0.286991,-0.011 -0.09083,-0.008 -0.176585,-0.0671 -0.272055,-0.0466 -0.117533,-0.12773 -0.311118,-0.14085 -0.433869,-0.26695 -1.11e-4,-0.0208 -0.0016,-0.16385 0.0011,-0.18572 0.0032,-0.0288 0.01709,-0.056 0.01828,-0.0849 0.0011,-0.0235 -0.01611,-0.0464 -0.01199,-0.0695 0.0088,-0.0494 0.06224,-0.0855 0.05041,-0.14199 0.192876,-0.18237 -0.02326,-0.0748 0.07841,-0.21504 0.02312,-0.0319 0.0623,-0.0495 0.08627,-0.0808 0.03102,-0.0405 0.0091,-0.10996 0.06566,-0.13814 0.08971,-0.0808 0.162386,-0.16492 0.244708,-0.25145 0.06802,-0.0715 0.156935,-0.12103 0.224676,-0.1928 0.01675,-0.0178 0.02223,-0.0434 0.03335,-0.0652 0.182491,-0.16697 0.373669,-0.31548 0.576691,-0.45741 0.187669,-0.16502 0.388327,-0.31641 0.613982,-0.4253 0.130397,-0.0482 1.316016,-0.6399 1.851184,-0.56039 0.180189,0.008 0.364476,0.0138 0.532209,0.0876 0.155898,0.16029 -0.08439,-0.0742 0.139383,0.0921 0.01474,0.011 0.07585,0.10123 0.08206,0.12075 0.0083,0.0262 -0.0024,0.0571 0.0096,0.0819 0.01228,0.0258 0.03934,0.0414 0.05901,0.0621 0.02032,0.12181 0.02135,0.059 -0.0083,0.18815 0.0043,0.0318 0.04454,0.0517 0.04753,0.0836 0.0059,0.063 -0.07713,0.24602 -0.06777,0.3193 -0.0191,0.0757 -0.03266,0.15123 -0.07345,0.21977 -0.02633,0.0442 -0.06646,0.0791 -0.09355,0.12286 -0.02077,0.0336 -0.02907,0.0737 -0.04916,0.10771 -0.02622,0.0443 -0.05946,0.0841 -0.08919,0.12616 -0.01656,0.0301 -0.03314,0.0601 -0.04972,0.0902 -0.03757,0.0853 -0.102647,0.15625 -0.169957,0.22142 -0.03005,0.0291 -0.06964,0.0482 -0.09653,0.0802 -0.01371,0.0163 -0.0074,0.0442 -0.02138,0.0603 -0.02792,0.032 -0.0667,0.0525 -0.100045,0.0788 -0.07793,0.10404 -0.157829,0.14071 -0.242712,0.22693 -0.02201,0.0223 -0.03074,0.055 -0.05039,0.0795 -0.06071,0.0756 -0.09936,0.0977 -0.176017,0.1566 -0.02572,0.0271 -0.05423,0.0518 -0.07718,0.0813 -0.01707,0.0219 -0.02127,0.0536 -0.04214,0.0719 -0.04138,0.0363 -0.09542,0.0553 -0.139867,0.0879 -0.09661,0.0706 -0.165598,0.17199 -0.252299,0.25301 -0.08251,0.12779 -0.195376,0.1724 -0.313634,0.26586 -0.293561,0.232 0.01606,-0.0193 -0.185201,0.16755 -0.02972,0.0276 -0.06267,0.0515 -0.094,0.0772 -0.05945,0.0321 -0.118898,0.0642 -0.178345,0.0963 -0.01871,0.0261 -0.03115,0.0582 -0.05613,0.0784 -0.04607,0.0374 -0.104158,0.0572 -0.152892,0.091 -0.08397,0.0582 -0.158774,0.13184 -0.247549,0.18442 -0.06763,0.0512 -0.147003,0.0778 -0.219096,0.12192 -0.02146,0.0131 -0.146625,0.0964 -0.159063,0.10295 -0.03798,0.0201 -0.07863,0.0348 -0.117948,0.0521 -0.12999,0.13074 -0.31877,0.17744 -0.476774,0.26738 -0.03428,0.014 -0.106415,0.0423 -0.134906,0.0594 -0.01577,0.009 -0.02588,0.027 -0.04213,0.0356 -0.02257,0.0119 -0.04839,0.0162 -0.0724,0.0249 -1.420775,0.51307 -0.906132,0.39673 -1.465228,0.51922 -0.02838,0.006 -0.170336,0.0401 -0.197723,0.0402 -0.04986,2.2e-4 -0.09147,-0.0591 -0.1474,-0.0255 -0.04606,5.3e-4 -0.09242,0.019 -0.137771,0.0109 -0.01916,-0.003 -0.02651,-0.0285 -0.03977,-0.0427 -0.03583,-0.006 -0.07345,-0.005 -0.107508,-0.0173 -0.05672,-0.0209 -0.164751,-0.11014 -0.193861,-0.16265 -0.014,-0.0252 -0.0016,-0.063 -0.02151,-0.0838 -0.02774,-0.029 -0.07236,-0.0346 -0.108543,-0.0519 0.02156,-0.25305 0.0217,0.0285 -0.05393,-0.19131 -0.03007,-0.0874 0.02667,-0.35963 0.05406,-0.44732 -0.0032,-0.0798 -0.01132,-0.1447 0.0082,-0.22387 0.03757,-0.15232 0.128638,-0.27944 0.08232,-0.44607 0.05907,-0.12335 0.07394,-0.22241 0.123637,-0.33466 0.01677,-0.0379 0.04623,-0.0696 0.06127,-0.10827 0.08566,-0.22011 -0.07734,0.0523 0.07226,-0.17445 0.01551,-0.0239 0.03099,-0.0478 0.04649,-0.0716 -0.0098,-0.0183 -0.03801,-0.0359 -0.02949,-0.0548 0.01662,-0.0369 0.06618,-0.0485 0.09058,-0.0808 0.04186,-0.0554 0.0026,-0.18088 0.09081,-0.21487 0.12754,-0.22006 0.180078,-0.47095 0.315741,-0.68873 0.05867,-0.22541 0.206774,-0.41611 0.23433,-0.65052 0.01511,-0.0555 0.0403,-0.10836 0.05086,-0.1649 0.0048,-0.0255 -0.0063,-0.0528 5.29e-4,-0.0777 0.0085,-0.0305 0.01492,-0.0724 0.04438,-0.0839 0.431495,-0.16931 0.876964,-0.30058 1.315815,-0.44979 0.0093,-0.003 -0.01797,0.008 -0.02694,0.0116 -0.01958,0.0161 -0.03915,0.0321 -0.05873,0.0482 0.0031,0.0203 0.02035,0.0435 0.0093,0.0608 -0.03046,0.0474 -0.08722,0.0725 -0.122894,0.11611 -0.05125,0.0627 -0.11743,0.19715 -0.138644,0.27713 -0.218644,0.23356 0.01934,-0.04 -0.117999,0.16875 -0.02193,0.0333 -0.06012,0.0554 -0.07751,0.0913 -0.01331,0.0275 0.0019,0.0632 -0.01077,0.0911 -0.03651,0.08 -0.123077,0.13034 -0.152353,0.2155 -0.141938,0.1925 -0.25214,0.40271 -0.400695,0.58938 -0.0414,0.0749 -0.09737,0.1533 -0.159542,0.21281 -0.03182,0.0305 -0.07641,0.0472 -0.104042,0.0815 -0.01079,0.0134 -0.0021,0.0343 -0.0031,0.0515 -0.02753,0.0296 -0.05505,0.0592 -0.08257,0.0888 -0.05045,0.12356 -0.0066,0.0386 -0.120084,0.17688 -0.101513,0.12377 -0.180649,0.26401 -0.284276,0.38627 -0.125669,0.11159 -0.1787,0.20362 -0.282284,0.32655 -0.318209,0.37763 -1.279385,0.53822 -1.409814,0.58812 -0.149029,-0.0797 -0.078,-0.0469 -0.101859,-0.164 -0.02188,-0.10738 -0.124272,-0.11804 -0.02796,-0.2404 0.02556,-0.0859 0.07337,-0.20458 0.08785,-0.2903 0.01704,-0.10092 -0.01754,-0.21559 0.03039,-0.31415 0.0076,-0.0335 0.04848,-0.21683 0.05976,-0.25039 0.02561,-0.0762 0.08699,-0.14263 0.09241,-0.22287 0.0019,-0.0285 -0.03549,-0.0526 -0.02915,-0.0804 0.0097,-0.0427 0.04833,-0.0731 0.0725,-0.10963 -0.0042,-0.0592 -0.01302,-0.13412 -0.0033,-0.19339 0.0059,-0.0363 0.02667,-0.0695 0.02986,-0.10608 0.0027,-0.0309 -0.01773,-0.0616 -0.0126,-0.0921 0.07437,-0.44197 0.03167,0.19658 0.05126,-0.21163 -0.0029,-0.0303 -0.0052,-0.24664 0.0038,-0.26919 0.01471,-0.037 0.05866,-0.058 0.07135,-0.0957 0.0072,-0.0216 -0.01125,-0.0441 -0.01685,-0.0662 0.01413,-0.0285 0.02823,-0.0569 0.04235,-0.0854 -0.0079,-0.0319 -0.09341,-0.22172 -0.04809,-0.24038 0.439153,-0.18076 0.895964,-0.31523 1.343946,-0.47284 -0.07973,-1.4e-4 -0.05787,-0.0204 -0.0835,0.0322 -0.151503,0.16579 -0.01556,-0.0115 -0.08356,0.15938 -0.05029,0.12632 -0.172291,0.2224 -0.207184,0.35856 -0.289568,0.38722 0.0832,-0.14804 -0.08187,0.19624 -0.02125,0.0443 -0.06788,0.0721 -0.09352,0.11405 -0.05291,0.0866 -0.05611,0.20499 -0.14266,0.27427 -0.194826,0.32441 0.04809,-0.0986 -0.06857,0.15274 -0.04153,0.0895 -0.127624,0.15519 -0.133773,0.26112 -0.252497,0.28826 0.03556,-0.0615 -0.103627,0.15752 -0.01791,0.0282 -0.04677,0.0482 -0.06583,0.0756 -0.06335,0.0912 -0.114294,0.19208 -0.193307,0.27341 -0.217344,0.34553 0.158607,-0.24139 -0.166338,0.21641 -0.04626,0.0652 -0.05245,0.15458 -0.102912,0.21656 -0.244496,0.30034 -0.07909,-0.0142 -0.195067,0.23072 -0.0307,0.0354 -0.06354,0.0691 -0.0921,0.10625 -0.03652,0.0475 -0.05576,0.10681 -0.09245,0.15419 -0.155088,0.20033 0.0046,-0.0533 -0.194088,0.17816 -0.02397,0.0279 -0.03452,0.065 -0.05178,0.0976 -0.02286,0.0263 -0.165346,0.18897 -0.18402,0.21613 -0.02315,0.0337 -0.0344,0.0747 -0.05797,0.10812 -0.09083,0.12872 -0.208618,0.24126 -0.29772,0.37197 -0.293089,0.33557 0.04272,-0.069 -0.186949,0.26786 -0.0369,0.0541 -0.08472,0.1 -0.124436,0.15209 -0.09151,0.12001 -0.163708,0.25375 -0.261969,0.3688 0,0 -1.3604,0.35941 -1.3604,0.35941 z"
       inkscape:connector-curvature="0" />
  </g>
</svg>
